<svg xmlns="http://www.w3.org/2000/svg" version="1.1" xmlns:xlink="http://www.w3.org/1999/xlink" xmlns:svgjs="http://svgjs.dev/svgjs" width="1500" height="416" viewBox="0 0 1500 416"><g transform="matrix(1,0,0,1,-0.9090909090909918,-0.35862108120645075)"><svg viewBox="0 0 396 110" data-background-color="#ffffff" preserveAspectRatio="xMidYMid meet" height="416" width="1500" xmlns="http://www.w3.org/2000/svg" xmlns:xlink="http://www.w3.org/1999/xlink"><g id="tight-bounds" transform="matrix(1,0,0,1,0.2400000000000091,0.09482768974208966)"><svg viewBox="0 0 395.52 109.81034462051585" height="109.81034462051585" width="395.52"><g><svg viewBox="0 0 632.3750560781965 175.56968759447005" height="109.81034462051585" width="395.52"><g transform="matrix(1,0,0,1,236.8550560781965,24.26469633179724)"><svg viewBox="0 0 395.52 127.04029493087558" height="127.04029493087558" width="395.52"><g id="textblocktransform"><svg viewBox="0 0 395.52 127.04029493087558" height="127.04029493087558" width="395.52" id="textblock"><g><svg viewBox="0 0 395.52 127.04029493087558" height="127.04029493087558" width="395.52"><g transform="matrix(1,0,0,1,0,0)"><svg width="395.52" viewBox="3.05 -33.9 108.48 34.85" height="127.04029493087558" data-palette-color="#252422"><path d="M8.5 0.8L7.3 0.35Q6.35 0.05 5.68-0.5 5-1.05 4.4-2.15L4.4-2.15Q3.35-4.15 3.15-7.9L3.15-7.9Q3.05-9.6 3.05-10.9L3.05-10.9 3.05-16.6Q3.05-19.85 3.25-22.9L3.25-22.9Q3.4-25.15 3.7-26.7 4-28.25 4.65-29.8L4.65-29.8Q5.35-31.4 6.2-32.05L6.2-32.05Q6.55-32.35 7.55-32.75L7.55-32.75Q8.2-33 8.8-33.3L8.8-33.3 10.8-33.3 10.95-33.3Q11-33.25 11.1-33.25L11.1-33.25 11.35-33.2 11.55-33.05Q11.7-32.9 11.7-32.85L11.7-32.85Q11.75-32.75 11.75-32.55L11.75-32.55 11.1-31.8 9-31.8Q8.05-31.8 7.28-30.88 6.5-29.95 6.1-28.55L6.1-28.55Q5.7-27.3 5.45-25.6 5.2-23.9 5.15-22.65L5.15-22.65Q5.05-21.05 5.05-20.45L5.05-20.45 4.95-20.2Q4.95-17.4 4.85-15.15L4.85-15.15 4.75-10.1Q4.75-7.9 5.05-6.05L5.05-6.05Q5.3-4.05 6.5-2.45L6.5-2.45Q7.65-0.85 10.05-0.85L10.05-0.85Q10.8-0.85 11.3-1.3L11.3-1.3Q12.05-1.3 12.05-0.75L12.05-0.75Q12.05-0.4 11.43 0.08 10.8 0.55 10.15 0.8L10.15 0.8 8.5 0.8ZM23.05 0.95Q17.2 0.95 17.2-17.45L17.2-17.45 17.2-19.2Q17.2-33.15 20.8-33.15L20.8-33.15Q21.05-33.15 21.5-33L21.5-33Q23.1-32.45 24.65-32.3L24.65-32.3Q25.6-32.1 26.55-30.35L26.55-30.35Q27.6-28.55 28.12-25.6 28.65-22.65 28.65-19.55L28.65-19.55 28.55-19.3Q28.55-17.65 28.6-16.35L28.6-16.35 28.65-13.35Q28.65-10.8 28.45-8.75L28.45-8.75Q28.15-5.65 27.45-3.4L27.45-3.4Q27-2.05 26.42-1.15 25.85-0.25 25 0.35L25 0.35Q24.2 0.95 23.05 0.95L23.05 0.95ZM22.85-0.5Q24.8-0.5 25.75-3.25L25.75-3.25Q26.7-6.05 26.9-8.95L26.9-8.95Q27.1-11.95 27.1-13.75L27.1-13.75Q27.1-15.75 26.8-19.65L26.8-19.65Q26.55-24 26.55-25.55L26.55-25.55 26.35-25.95 26.45-26.2Q26.45-28.4 25.22-30 24-31.6 22.25-31.6L22.25-31.6Q19.95-31.6 19.5-29.4L19.5-29.4Q19.4-28.65 19.3-27.25L19.3-27.25Q19.3-23.55 19-22.2L19-22.2Q19-21.45 18.85-19.85L18.85-19.85 18.75-17.5Q18.75-16.4 18.8-15.55L18.8-15.55 18.85-13.55Q18.85-11.2 19.25-8.15L19.25-8.15Q19.55-5.9 19.95-4.35 20.35-2.8 21.1-1.7L21.1-1.7Q21.85-0.5 22.85-0.5L22.85-0.5ZM35.95 0.55Q35.55 0.55 35.27 0.25 34.99-0.05 34.99-0.5L34.99-0.5 34.95-2.05Q34.95-3.85 35.24-7.35L35.24-7.35Q35.49-11.25 35.49-12.6L35.49-12.6 35.45-14.85Q35.39-15.85 35.39-17.05L35.39-17.05Q35.39-19.05 35.55-23L35.55-23Q35.7-27.05 35.7-29L35.7-29 35.64-31.9 35.45-32.15 35.45-32.45Q35.45-33.75 36.49-33.75L36.49-33.75Q37.3-33.75 39.12-33.13 40.95-32.5 40.95-32.1L40.95-32.1 40.95-31.95Q41.84-30.5 42.17-29.05 42.49-27.6 42.49-25.35L42.49-25.35Q42.49-21.7 41.7-19.4L41.7-19.4 41.74-19.4Q41.55-19 40.95-18.1L40.95-18.1 40.24-17.05Q41.14-16.35 41.77-15 42.39-13.65 42.55-12.4L42.55-12.4Q42.59-11.95 42.64-11.3 42.7-10.65 42.74-9.75L42.74-9.75 42.8-8.45 42.8-7.75Q42.8-2.95 39.8-0.65L39.8-0.65Q38.24 0.55 35.95 0.55L35.95 0.55ZM37.09-18.05L37.49-18.05Q40.8-18.05 40.8-24.7L40.8-24.7Q40.8-25.25 40.7-26.85L40.7-26.85 40.64-27.8 40.55-27.9Q40.34-29.55 39.99-30.5L39.99-30.5Q39.74-31.2 39.2-31.63 38.64-32.05 37.99-32.05L37.99-32.05Q36.89-32.05 36.89-25.5L36.89-25.5Q36.89-24.25 36.95-23.8L36.95-23.8 36.95-22.8 36.95-21.1Q36.89-20.3 36.89-19.3L36.89-19.3 36.89-18.7Q36.89-18.7 36.99-18.4L36.99-18.4 37.09-18.05ZM36.74-1.4Q37.95-1.4 38.97-2.2 39.99-3 40.59-4.28 41.2-5.55 41.2-6.8L41.2-6.8 41.24-7 41.24-7.4 41.24-7.95Q41.24-10.05 40.89-11.95L40.89-11.95Q40.34-14.5 38.95-15.65L38.95-15.65Q38.14-16.3 37.05-16.3L37.05-16.3Q36.8-12.15 36.8-9.5L36.8-9.5 36.8-8.35Q36.8-6.9 36.95-6.05L36.95-6.05Q36.7-5.6 36.7-3.65L36.7-3.65 36.7-2.35 36.74-1.4ZM54.54 0.75Q53.74 0.75 52.82 0.23 51.89-0.3 51.29-1L51.29-1Q50.59-1.9 50.19-6.05 49.79-10.2 49.69-15.55L49.69-15.55Q49.69-16.75 49.64-17.35L49.64-17.35Q49.54-29.9 49.24-32.2L49.24-32.2 49.54-32.9Q50.69-32.75 50.69-30.15L50.69-30.15 50.84-16.9Q50.84-15.5 51.09-11.6L51.09-11.6Q51.39-8.1 51.39-6.3L51.39-6.3Q51.39-0.6 55.14-0.6L55.14-0.6Q57.44-0.6 58.09-11.1L58.09-11.1 58.14-12.1Q58.49-25.85 58.49-32.45L58.49-32.45 58.44-32.9Q58.39-33.1 58.39-33.35L58.39-33.35Q58.39-33.9 59.24-33.9L59.24-33.9Q59.84-33.9 59.99-33.6L59.99-33.6Q60.09-33.1 60.09-31.85L60.09-31.85Q60.09-28.05 59.79-26.75L59.79-26.75 59.84-26.45Q59.84-25.8 59.69-24.45L59.69-24.45 59.59-22.45 59.59-21.95Q59.64-21.75 59.64-21.45L59.64-21.45Q59.54-20.25 59.54-19.15L59.54-19.15Q59.49-18.8 59.49-18.05L59.49-18.05Q59.39-13.3 59.29-9.8L59.29-9.8Q59.14-5.45 58.09-2.45L58.09-2.45Q56.99 0.75 54.54 0.75L54.54 0.75ZM68.49 0.65Q67.79 0.65 67.64-0.5L67.64-0.5Q67.74-0.8 67.74-2.15L67.74-2.15Q67.74-6.75 67.89-15.8L67.89-15.8Q68.04-24.8 68.04-28.8L68.04-28.8 68.14-30.6 68.29-32.1Q68.29-32.45 68.64-32.45L68.64-32.45Q68.89-32.45 69.34-32.3L69.34-32.3 69.49-32.25Q69.49-31.15 69.44-30.25L69.44-30.25 69.44-28.3 69.44-22.85Q69.49-20.45 69.49-17.4L69.49-17.4Q69.44-17.15 69.44-16.3L69.44-16.3 69.39-15.25Q69.34-14.25 69.34-13.2L69.34-13.2Q69.34-12.05 69.39-11.1L69.39-11.1 69.44-8.95 69.29-8.55 69.34-8.6Q69.34-8.45 69.29-8.4L69.29-8.4 69.29-8.2Q69.29-7.8 69.44-7.5L69.44-7.5 69.29-2.7 69.29-2.4Q69.29-1.55 69.34-1.4L69.34-1.4Q69.34-1.15 69.59-1.15L69.59-1.15 72.19-1.05Q73.34-1.05 73.77-1.03 74.19-1 74.29-1L74.29-1 74.44-1Q74.69-1 74.94-0.73 75.19-0.45 75.19-0.15L75.19-0.15Q75.19 0.45 74.39 0.5L74.39 0.5Q73.54 0.45 70.24 0.45L70.24 0.45 70.34 0.5Q69.84 0.5 69.39 0.55L69.39 0.55Q68.99 0.65 68.49 0.65L68.49 0.65ZM80.94 0.65Q80.24 0.65 80.09-0.5L80.09-0.5Q80.19-0.8 80.19-2.15L80.19-2.15Q80.19-6.75 80.34-15.8L80.34-15.8Q80.49-24.8 80.49-28.8L80.49-28.8 80.59-30.6 80.74-32.1Q80.74-32.45 81.09-32.45L81.09-32.45Q81.34-32.45 81.79-32.3L81.79-32.3 81.94-32.25Q81.94-31.15 81.89-30.25L81.89-30.25 81.89-28.3 81.89-22.85Q81.94-20.45 81.94-17.4L81.94-17.4Q81.89-17.15 81.89-16.3L81.89-16.3 81.84-15.25Q81.79-14.25 81.79-13.2L81.79-13.2Q81.79-12.05 81.84-11.1L81.84-11.1 81.89-8.95 81.74-8.55 81.79-8.6Q81.79-8.45 81.74-8.4L81.74-8.4 81.74-8.2Q81.74-7.8 81.89-7.5L81.89-7.5 81.74-2.7 81.74-2.4Q81.74-1.55 81.79-1.4L81.79-1.4Q81.79-1.15 82.04-1.15L82.04-1.15 84.64-1.05Q85.79-1.05 86.21-1.03 86.64-1 86.74-1L86.74-1 86.89-1Q87.14-1 87.39-0.73 87.64-0.45 87.64-0.15L87.64-0.15Q87.64 0.45 86.84 0.5L86.84 0.5Q85.99 0.45 82.69 0.45L82.69 0.45 82.79 0.5Q82.29 0.5 81.84 0.55L81.84 0.55Q81.44 0.65 80.94 0.65L80.94 0.65ZM93.44 0.65Q92.54 0.65 92.44-0.4L92.44-0.4 92.44-1.05Q92.49-1.3 92.49-1.65L92.49-1.65 92.29-1.85Q92.69-2.9 92.69-3.9L92.69-3.9Q92.69-5.05 92.54-7.2L92.54-7.2 92.44-10.5Q92.44-13 92.59-18L92.59-18Q92.79-22.45 92.79-25.55L92.79-25.55 92.69-28.55Q92.59-29.9 92.59-31.55L92.59-31.55Q92.59-32.3 92.94-32.63 93.29-32.95 94.04-32.95L94.04-32.95Q94.54-32.95 94.84-32.65L94.84-32.65Q94.94-32.6 96.29-32.45L96.29-32.45Q97.54-32.3 98.44-32L98.44-32Q99.39-31.7 99.39-31.25L99.39-31.25Q99.39-30.75 98.44-30.25L98.44-30.25Q95.59-31.2 94.39-31.2L94.39-31.2 94.14-30.9Q94.19-30.45 94.19-28.75L94.19-28.75Q94.19-26.6 94.09-24.9L94.09-24.9Q94.04-23.15 94.04-21L94.04-21Q94.04-19.6 94.74-19.6L94.74-19.6 95.54-19.65Q95.94-19.7 96.39-19.7L96.39-19.7Q98.34-19.7 98.34-18.8L98.34-18.8Q98.34-18.25 98.09-17.88 97.84-17.5 97.34-17.5L97.34-17.5Q96.59-17.5 96.19-17.9L96.19-17.9 94.59-18.15 94.34-18.15 94.09-17.9 94.09-17.75Q94.19-16.9 94.19-13.8L94.19-13.8Q94.19-11.85 94.14-10.25L94.14-10.25 94.09-6.7Q94.09-4.75 94.24-2.7L94.24-2.7Q94.29-1.55 94.74-1.18 95.19-0.8 96.39-0.8L96.39-0.8 97.29-0.85Q97.74-0.9 98.29-0.9L98.29-0.9Q99.74-0.9 99.74-0.25L99.74-0.25Q99.74 0.65 97.54 0.65L97.54 0.65 93.44 0.65ZM105.83 0.6Q105.28 0.5 104.78 0.18 104.28-0.15 104.23-0.6L104.23-0.6 104.48-1Q104.68-1 105.38-0.85L105.38-0.85Q105.93-0.65 106.28-0.65L106.28-0.65Q107.38-0.65 108.23-1.53 109.08-2.4 109.53-3.8L109.53-3.8Q110.23-6.4 110.23-8.7L110.23-8.7Q110.23-12.15 108.13-16.1L108.13-16.1Q106.83-18.4 106.13-19.75 105.43-21.1 104.88-22.85L104.88-22.85Q104.23-24.9 104.23-26.8L104.23-26.8Q104.23-28.6 105.13-31.05L105.13-31.05Q105.58-32.2 106.41-32.93 107.23-33.65 108.18-33.65L108.18-33.65Q108.83-33.65 109.46-33.2 110.08-32.75 110.08-32.25L110.08-32.25Q110.08-31.85 109.43-31.85L109.43-31.85Q109.23-31.85 108.93-32L108.93-32Q108.63-32.15 108.38-32.15L108.38-32.15Q107.63-32.15 107.03-31.55 106.43-30.95 106.13-30L106.13-30Q105.53-28.15 105.53-26.6L105.53-26.6Q105.53-25.65 105.78-24.65L105.78-24.65Q105.83-24.35 105.88-24.15 105.93-23.95 105.93-23.85L105.93-23.85 106.23-22.85 106.48-21.95 106.88-21.05Q107.03-20.7 107.21-20.43 107.38-20.15 107.53-19.9L107.53-19.9 108.13-18.85Q108.33-18.55 108.98-17.43 109.63-16.3 110.18-15.05L110.18-15.05Q110.68-14 110.93-13.08 111.18-12.15 111.38-10.85L111.38-10.85Q111.53-9.6 111.53-8.1L111.53-8.1Q111.53-5.7 110.88-3.6L110.88-3.6Q109.98-1.1 108.28-0.1L108.28-0.1Q107.33 0.5 106.08 0.5L106.08 0.5 105.83 0.6ZM109.78-32L109.83-32Q109.83-32.05 109.78-32.05L109.78-32.05 109.78-32Z" opacity="1" transform="matrix(1,0,0,1,0,0)" fill="#252422" class="wordmark-text-0" data-fill-palette-color="primary" id="text-0"></path></svg></g></svg></g></svg></g></svg></g><g><svg viewBox="0 0 206.86389141209511 175.56968759447005" height="175.56968759447005" width="206.86389141209511"><g><svg xmlns="http://www.w3.org/2000/svg" xmlns:xlink="http://www.w3.org/1999/xlink" version="1.1" x="0" y="0" viewBox="5.099999999999994 11.9 89.9 76.3" enable-background="new 0 0 100 100" xml:space="preserve" height="175.56968759447005" width="206.86389141209511" class="icon-icon-0" data-fill-palette-color="accent" id="icon-0"><g fill="#b10dc9" data-fill-palette-color="accent"><path d="M23.1 43c-2.7 0-4.9 2.2-4.9 4.9 0 2.7 2.2 4.9 4.9 4.9s4.9-2.2 4.9-4.9C28 45.2 25.8 43 23.1 43zM23.1 51.2c-1.8 0-3.3-1.5-3.3-3.3 0-1.8 1.5-3.3 3.3-3.3s3.3 1.5 3.3 3.3C26.5 49.7 25 51.2 23.1 51.2z" fill="#b10dc9" data-fill-palette-color="accent"></path><path d="M51.6 43c-2.7 0-4.9 2.2-4.9 4.9 0 2.7 2.2 4.9 4.9 4.9 2.7 0 4.9-2.2 4.9-4.9C56.5 45.2 54.3 43 51.6 43zM51.6 51.2c-1.8 0-3.3-1.5-3.3-3.3 0-1.8 1.5-3.3 3.3-3.3 1.8 0 3.3 1.5 3.3 3.3C54.9 49.7 53.4 51.2 51.6 51.2z" fill="#b10dc9" data-fill-palette-color="accent"></path><path d="M37.3 43c-0.1 0-0.3 0-0.4 0-2.5 0.2-4.5 2.4-4.5 4.9s2 4.7 4.5 4.9c0.1 0 0.3 0 0.4 0 2.7 0 4.9-2.2 4.9-4.9C42.2 45.2 40.1 43 37.3 43zM37.3 51.2c-0.1 0-0.2 0-0.3 0-1.7-0.1-3-1.6-3-3.3s1.3-3.2 3-3.3c0.1 0 0.2 0 0.3 0 1.8 0 3.3 1.5 3.3 3.3C40.7 49.7 39.2 51.2 37.3 51.2z" fill="#b10dc9" data-fill-palette-color="accent"></path><path d="M67.6 11.9c-6 0-12 2.1-16.5 5.7-0.4-0.2-0.8-0.4-1.1-0.5-4.1-1.8-8.4-2.7-12.9-2.7-17.6 0-32 14.4-32 32 0 11 5.6 21.2 14.9 27.1l0.7 0.5v13.4c0 0.3 0.2 0.6 0.4 0.7 0.1 0.1 0.2 0.1 0.4 0.1 0.2 0 0.3-0.1 0.5-0.2l12.9-9.6 0.5 0c0.5 0 1.1 0 1.6 0 9.7 0 18.8-4.3 24.9-11.9 0.2-0.2 0.3-0.4 0.5-0.6 2.2 0.8 3.8 1 5.2 1 0.1 0 0.2 0 0.3 0l14.4 10.7c0.2 0.2 0.6 0.2 0.8 0.1 0.3-0.1 0.4-0.4 0.4-0.7V61.7C90.7 56.5 95 48.2 95 39.4 95 24.3 82.7 11.9 67.6 11.9zM61.5 64.4C61.5 64.4 61.5 64.4 61.5 64.4c-0.3 0.4-0.6 0.8-0.8 1.1C54.8 72.7 46.2 76.8 37 76.8c-0.5 0-1 0-1.5 0l-0.8 0c-0.2 0-0.4 0-0.5 0.2l-11.9 8.8V73.5c0-0.3-0.1-0.5-0.4-0.7l-1.1-0.7C11.9 66.5 6.6 56.9 6.6 46.4 6.6 29.6 20.2 16 37 16c4.3 0 8.4 0.9 12.3 2.6 0.5 0.2 1 0.4 1.5 0.7 0 0 0.1 0 0.1 0.1 0.9 0.5 1.8 1 2.6 1.5 8.8 5.6 14 15.2 14 25.6 0 5.3-1.4 10.6-4.1 15.2C62.8 62.5 62.2 63.5 61.5 64.4zM82.3 60.6C82.1 60.8 82 61 82 61.3v14l-13.4-9.9c-0.1-0.1-0.3-0.2-0.5-0.2 0 0 0 0 0 0-0.2 0-0.4 0-0.6 0-1.1 0-2.4-0.1-4.2-0.7 0.5-0.7 0.9-1.4 1.4-2.2 2.8-4.8 4.3-10.4 4.3-16 0-10.9-5.5-21-14.7-26.9-0.6-0.4-1.1-0.7-1.7-1 4.2-3.1 9.6-4.9 15-4.9 14.3 0 25.9 11.6 25.9 25.9C93.4 47.9 89.3 55.8 82.3 60.6z" fill="#b10dc9" data-fill-palette-color="accent"></path></g></svg></g></svg></g></svg></g><defs></defs></svg><rect width="395.52" height="109.81034462051585" fill="none" stroke="none" visibility="hidden"></rect></g></svg></g></svg>